<?xml version="1.0" encoding="utf-8"?>
<!-- Generator: Adobe Illustrator 23.0.3, SVG Export Plug-In . SVG Version: 6.00 Build 0)  -->
<svg version="1.1" id="Capa_1" xmlns="http://www.w3.org/2000/svg" xmlns:xlink="http://www.w3.org/1999/xlink" x="0px" y="0px"
	 viewBox="0 0 65.8 66" style="enable-background:new 0 0 65.8 66;" xml:space="preserve">
<style type="text/css">
	.st0{fill:#F7F9FB;}
</style>
<g>
	<g>
		<path class="st0" d="M32.8,0.3C14.7,0.3,0,15,0,33.1S14.7,66,32.8,66s32.8-14.7,32.8-32.8S50.9,0.3,32.8,0.3z M47.9,47.7
			c-0.4,0.6-1,0.9-1.7,0.9c-0.4,0-0.8-0.1-1.2-0.4c-7.7-5.4-20.5-5.7-29.1-3.7c-1.1,0.3-2.2-0.4-2.5-1.5s0.4-2.2,1.5-2.5
			c9.5-2.2,23.7-1.8,32.4,4.3C48.3,45.5,48.5,46.8,47.9,47.7z M51.9,39.7c-0.4,0.6-1,0.9-1.7,0.9c-0.4,0-0.8-0.1-1.2-0.4
			c-8.9-6.4-19.9-8-34.5-5c-1.1,0.2-2.2-0.5-2.4-1.6s0.5-2.2,1.6-2.4c15.8-3.2,27.8-1.4,37.7,5.7C52.3,37.5,52.5,38.8,51.9,39.7z
			 M55.9,28.9c-0.4,0.6-1,0.9-1.7,0.9c-0.4,0-0.8-0.1-1.2-0.4c-11.3-7.7-28.5-7.7-39.6-3.8c-1.1,0.4-2.2-0.2-2.6-1.3
			c-0.4-1.1,0.2-2.2,1.3-2.6c12.1-4.3,30.9-4.2,43.3,4.2C56.3,26.7,56.5,28,55.9,28.9z"/>
	</g>
</g>
</svg>
